# xmcd
#
# Track frame offsets:
#	150
#	16277
#	37450
#	56159
#	69625
#	85232
#	100843
#	120602
#	132732
#	151564
#
# Disc length: 2244 seconds
#
# Revision: 0
# Processed by: cddbd v1.5PL3 Copyright (c) Steve Scherf et al.
# Submitted via: audiograbber 1.83.01
#
DISCID=8908c20a
DTITLE=Παπακωνσταντίνου Β. - Όλα από χέρι καμένα
DYEAR=1988
DGENRE=Blues
TTITLE0=Όλα από χέρι καμένα
TTITLE1=Μπουμ
TTITLE2=Κάντιλακ
TTITLE3=Ένα μπλουζ
TTITLE4=Αλίκη
TTITLE5=Κοντρόλ
TTITLE6=Ηλεκτρικό πρόβατο
TTITLE7=" Πρωταθλητής"
TTITLE8=Γενέθλια '86
TTITLE9=Ονειρεύομαι ( L.A.)
EXTD=
EXTT0=
EXTT1=
EXTT2=
EXTT3=
EXTT4=
EXTT5=
EXTT6=
EXTT7=
EXTT8=
EXTT9=
PLAYORDER=
